<svg xmlns="http://www.w3.org/2000/svg" width="160.000" height="56.658" viewBox="0 0 160.000 56.658"><g fill="#FFFDF4" fill-opacity="0.2" transform="translate(15.000,15.000) scale(0.088919)"><path d="M423.467 5.72228C430.706 3.93742 470.821 3.045 543.811 3.045H573.671C618.009 3.045 644.852 3.49121 654.202 4.38362C663.854 4.97858 672.299 7.3584 679.538 11.5231C705.175 26.0994 718.899 50.0462 720.708 83.3635L722.066 101.658H641.535C587.546 101.658 559.345 102.253 556.932 103.443C552.709 105.228 550.145 108.798 549.241 114.152C548.336 119.209 547.883 132.001 547.883 152.527C547.883 170.97 548.034 182.274 548.336 186.439C548.637 190.604 549.542 193.43 551.05 194.917C552.558 196.702 557.384 197.892 565.528 198.487C573.671 198.784 597.801 198.933 637.915 198.933H722.066L720.708 217.674C720.105 231.06 718.899 240.282 717.089 245.339C707.437 272.707 688.586 289.812 660.536 296.654C652.996 298.439 613.937 299.331 543.359 299.331C472.48 299.331 432.968 298.141 424.825 295.761C397.378 288.622 379.281 271.666 370.534 244.893C368.423 238.646 367.367 229.424 367.367 217.228V198.933H530.691C532.803 197.148 535.97 194.173 540.192 190.009C540.192 181.382 540.041 168.442 539.74 151.188C539.438 133.637 539.287 120.399 539.287 111.475C535.065 108.203 531.294 104.931 527.977 101.658H367.367V83.3635C367.367 70.8695 368.272 61.9452 370.081 56.5907C374.304 44.0967 381.09 33.3875 390.44 24.4633C400.092 15.2415 411.101 8.9945 423.467 5.72228Z"/><path d="M54.2283 4.39997C60.5549 3.49666 97.3097 3.045 164.493 3.045C255.174 3.045 303.377 3.64721 309.101 4.85163C318.441 6.65826 326.575 11.0243 333.504 17.9497C340.734 24.875 345.404 33.0048 347.513 42.339C349.019 50.7699 349.773 63.1152 349.773 79.3748V107.829H85.4096L78.631 111.894C71.4006 116.109 67.7854 120.174 67.7854 124.089C67.7854 124.992 68.2373 125.745 69.1411 126.347C70.3462 127.551 109.511 135.531 186.636 150.285C251.71 162.63 290.272 170.459 302.323 173.771C314.373 177.083 324.315 182.954 332.148 191.385C343.295 203.731 348.869 218.184 348.869 234.744C348.869 247.09 345.555 258.682 338.927 269.522C332.6 280.362 323.562 288.491 311.813 293.911L302.323 298.428C273.1 298.729 229.115 298.879 170.367 298.879C111.921 298.879 67.936 299.03 38.4117 299.331L27.5661 293.911C9.48995 284.878 0.451903 269.973 0.451903 249.197C0.451903 226.615 10.3938 210.355 30.2775 200.419L38.4117 196.805L152.291 195.902C208.93 195.3 242.37 194.848 252.614 194.547C262.857 194.246 269.033 193.192 271.141 191.385C278.071 186.568 281.535 182.202 281.535 178.287C281.535 177.685 281.385 177.234 281.083 176.932C280.18 176.029 241.316 168.2 164.493 153.446C88.8742 139.294 47.1485 130.864 39.3155 128.154C32.9889 125.745 26.2103 120.927 18.9799 113.701C6.32664 100.452 0 85.5474 0 68.9867C0 58.4481 2.71142 47.7589 8.13425 36.9192C12.352 29.0905 18.6786 22.1651 27.1142 16.143C35.8509 9.81985 44.889 5.90549 54.2283 4.39997Z"/><path d="M1366.48 134.194V59.2948H1277.27C1228.91 59.2948 1199.78 59.7406 1189.86 60.6323C1179.95 61.2267 1170.49 63.9017 1161.48 68.6572C1155.77 71.6293 1149.77 76.0876 1143.46 82.0319C1137.15 87.9763 1132.34 93.6234 1129.04 98.9733C1122.13 110.862 1118.68 121.265 1118.68 130.181V134.194H1366.48ZM1180.4 2.22915C1187.91 0.74305 1226.66 0 1296.65 0C1366.03 0.297231 1403.88 1.4861 1410.19 3.56661C1429.11 10.6998 1443.23 22.4399 1452.54 38.7868C1457.04 46.8117 1459.75 56.0254 1460.65 66.428C1461.55 76.5334 1462 105.661 1462 153.81V243.867L1457.95 253.675C1449.23 273.886 1434.97 287.112 1415.14 293.353C1409.13 294.839 1399.67 295.582 1386.76 295.582H1366.48L1366.03 256.796C1365.73 237.774 1365.28 226.182 1364.68 222.021C1364.38 217.86 1363.18 213.55 1361.08 209.092C1355.37 197.204 1347.26 188.733 1336.75 183.68L1326.38 178.33H1227.26C1161.18 178.33 1126.94 179.222 1124.53 181.005C1119.43 184.275 1116.87 199.433 1116.87 226.479C1116.87 241.34 1117.63 251.891 1119.13 258.133C1120.93 264.375 1124.53 270.468 1129.94 276.412C1138.05 285.328 1148.11 290.976 1160.13 293.353C1163.13 293.948 1164.63 294.394 1164.63 294.691C1164.63 295.285 1156.37 295.582 1139.85 295.582H1110.12V187.247C1110.12 115.023 1111.02 75.3445 1112.82 68.2113C1117.02 51.5672 1125.13 37.4494 1137.15 25.8579C1149.16 13.9692 1163.58 6.09296 1180.4 2.22915Z"/><path d="M739.935 123.715V0H783.67C807.416 0 819.29 0.451516 819.29 1.35455C818.989 1.65555 818.388 1.80606 817.486 1.80606C799.15 4.51514 783.82 11.8899 771.496 23.9302C759.172 35.9706 751.507 51.021 748.502 69.0816C747.6 75.4027 747.149 89.2492 747.149 110.621V135.454C747.75 165.555 748.502 184.82 749.403 193.248C750.606 201.375 753.611 208.298 758.421 214.017C762.028 217.931 765.785 220.339 769.693 221.242C778.109 223.048 813.428 223.951 875.649 223.951H908.113C979.953 223.951 1022.49 223.65 1035.71 223.048C1048.94 222.145 1059.16 219.285 1066.37 214.469C1066.67 214.168 1066.97 213.867 1067.27 213.566C1068.17 212.964 1070.58 209.201 1074.49 202.278C1078.7 195.355 1082.6 188.432 1086.21 181.508L1091.62 171.575C1092.22 171.575 1092.52 184.519 1092.52 210.405C1092.52 238.399 1091.32 255.858 1088.92 262.781C1083.5 276.326 1075.39 286.109 1064.57 292.129C1058.86 295.44 1051.64 297.547 1042.93 298.45C1034.21 299.353 1014.67 299.805 984.311 299.805C979.201 299.805 968.681 299.654 952.75 299.353C936.819 299.353 923.292 299.353 912.171 299.353L785.474 298.902L776.005 294.387C758.571 286.26 747.449 273.768 742.64 256.911C740.837 250.289 739.935 205.89 739.935 123.715Z"/></g></svg>